<?xml version="1.0" standalone="no"?>
<!DOCTYPE svg PUBLIC "-//W3C//DTD SVG 20010904//EN"
 "http://www.w3.org/TR/2001/REC-SVG-20010904/DTD/svg10.dtd">
<svg version="1.0" xmlns="http://www.w3.org/2000/svg"
 width="441.000000pt" height="441.000000pt" viewBox="0 0 441.000000 441.000000"
 preserveAspectRatio="xMidYMid meet">
<metadata>
Created by potrace 1.11, written by Peter Selinger 2001-2013
</metadata>
<g transform="translate(0.000000,441.000000) scale(0.100000,-0.100000)"
fill="#000000" stroke="none">
<path d="M2089 3987 c-44 -27 -924 -604 -1569 -1029 -91 -60 -152 -107 -162
-126 -17 -28 -18 -102 -18 -1162 0 -1024 2 -1135 16 -1166 18 -38 68 -79 84
-69 5 3 10 2 10 -3 0 -7 1054 -11 1107 -4 21 3 94 84 89 98 -3 7 -1 16 3 18 5
3 9 106 9 228 0 123 1 241 1 263 l1 40 420 -1 c231 -1 420 2 420 5 0 4 22 6
50 5 27 -1 52 2 55 6 3 5 12 7 20 3 9 -3 21 0 29 6 7 6 16 8 19 4 4 -3 7 -2 7
4 0 6 9 9 20 6 11 -3 20 -1 20 4 0 5 10 9 22 10 11 1 24 6 27 10 3 4 13 9 21
11 8 2 23 11 34 20 10 9 20 16 22 14 12 -8 71 36 145 108 46 44 80 80 77 80
-3 0 7 14 23 31 16 17 26 35 23 40 -3 5 -1 9 4 9 5 0 12 8 14 18 8 31 11 37
25 50 7 8 11 17 8 22 -3 5 -1 10 5 12 5 1 11 14 12 28 2 14 6 28 11 31 7 5 16
47 21 99 1 14 5 30 8 35 8 14 7 175 -1 175 -3 0 -7 17 -7 38 -2 40 -11 88 -21
112 -3 8 -7 17 -8 20 -18 52 -48 114 -60 122 -5 4 -6 8 -2 8 8 0 -22 49 -50
80 -70 80 -109 120 -118 120 -6 0 -16 9 -23 20 -7 11 -17 20 -23 20 -5 0 -19
9 -31 20 -12 10 -25 17 -30 14 -4 -3 -8 -1 -8 4 0 9 -37 25 -52 23 -5 -1 -8 4
-8 9 0 6 -8 10 -18 10 -10 0 -22 4 -28 9 -12 11 -101 35 -139 37 -16 1 -30 3
-30 5 0 7 -1095 6 -1126 -2 -30 -7 -80 -48 -79 -64 1 -3 -6 -12 -14 -20 -10
-11 -14 -34 -12 -79 2 -70 12 -88 99 -178 24 -26 43 -49 40 -51 -2 -3 10 -16
27 -30 16 -14 30 -28 30 -32 0 -8 113 -140 151 -178 16 -15 26 -27 22 -27 -4
0 2 -10 14 -22 12 -13 39 -43 60 -67 21 -24 48 -54 61 -68 12 -13 22 -27 22
-31 0 -4 8 -15 18 -23 9 -9 35 -37 57 -64 22 -27 55 -65 72 -84 l33 -36 215
-1 c118 0 215 3 215 7 0 4 -11 16 -25 27 -13 11 -22 21 -20 23 2 3 -22 33 -54
67 -31 34 -56 62 -54 62 2 0 -41 51 -94 113 -54 61 -104 121 -113 132 -8 10
-30 34 -47 53 -18 19 -33 37 -33 41 0 3 -14 19 -31 34 -17 15 -27 27 -23 27 4
0 -6 15 -23 33 -49 50 -93 104 -93 113 0 5 145 8 322 7 178 -1 323 -2 323 -3
0 -2 30 -9 60 -14 11 -2 31 -8 45 -14 14 -5 28 -8 33 -5 4 2 7 0 7 -5 0 -7 49
-36 57 -33 8 2 115 -119 130 -146 10 -18 21 -33 26 -33 4 0 5 -4 2 -10 -3 -5
-2 -10 2 -10 5 0 9 -8 10 -17 1 -10 4 -31 8 -48 4 -16 7 -38 7 -47 0 -10 3
-20 8 -23 9 -5 8 -14 -10 -100 -12 -59 -13 -61 -30 -100 -7 -16 -13 -33 -12
-37 1 -5 -2 -8 -8 -8 -5 0 -10 -4 -10 -9 0 -11 -36 -56 -64 -80 -11 -9 -30
-26 -43 -38 -13 -12 -23 -19 -23 -16 0 3 -8 -1 -17 -9 -10 -8 -31 -20 -48 -25
-16 -6 -39 -15 -50 -19 -36 -14 -53 -14 -600 -17 -582 -3 -572 -2 -617 -55
-33 -41 -36 -59 -34 -315 0 -142 -2 -266 -5 -275 -6 -16 -35 -17 -330 -15
-178 1 -326 2 -329 2 -3 1 -5 428 -4 950 1 854 2 951 17 965 8 9 18 16 21 16
9 0 161 104 164 112 2 5 9 8 16 8 7 0 25 11 40 25 14 13 26 22 26 20 0 -3 23
9 50 26 28 17 50 35 50 40 0 6 5 7 10 4 6 -3 13 1 16 9 3 9 10 14 14 11 4 -2
19 6 33 19 14 13 28 22 30 20 2 -2 16 7 30 20 15 14 27 23 27 20 0 -7 63 37
72 51 4 5 8 7 8 2 0 -8 101 60 111 75 3 6 9 9 12 9 11 -1 67 34 67 42 0 4 4 7
10 7 10 0 101 60 111 73 3 5 10 8 15 8 5 -1 17 6 27 14 9 8 22 15 27 15 6 0
10 5 10 10 0 6 7 10 15 10 9 0 18 7 21 15 4 8 9 13 14 10 4 -2 16 4 26 13 10
10 27 21 37 25 9 3 17 11 17 17 0 6 5 8 10 5 6 -3 13 1 16 9 3 9 10 14 14 11
4 -2 19 6 33 19 14 13 28 21 31 18 3 -3 6 0 6 7 0 7 4 10 9 7 5 -3 20 5 35 19
14 13 26 21 26 17 0 -4 7 2 16 13 8 11 17 19 20 17 7 -4 64 31 64 40 0 4 7 8
15 8 9 0 18 7 21 15 4 8 10 13 14 10 5 -3 13 3 19 12 6 10 11 14 11 9 0 -5 6
-3 14 3 14 12 52 -7 116 -59 14 -11 35 -23 48 -26 12 -3 22 -10 22 -15 0 -8
40 -33 73 -45 9 -3 17 -10 17 -15 0 -5 5 -9 10 -9 6 0 20 -8 31 -18 10 -11 32
-25 47 -33 15 -8 29 -16 32 -20 11 -12 102 -69 111 -69 5 0 9 -4 9 -8 0 -8 51
-36 59 -32 2 1 7 -3 10 -8 7 -11 138 -102 147 -102 2 0 14 -9 26 -20 12 -10
25 -17 30 -14 4 3 8 1 8 -5 0 -9 41 -36 67 -44 4 -1 18 -12 31 -24 14 -13 28
-20 33 -17 5 3 9 1 9 -3 0 -11 161 -119 172 -116 4 2 8 -1 8 -6 0 -9 79 -60
90 -58 3 0 18 -11 34 -26 16 -15 31 -25 33 -23 2 2 16 -7 30 -20 14 -13 29
-21 34 -18 5 3 9 1 9 -4 0 -5 25 -26 55 -46 30 -20 55 -33 55 -29 0 4 6 -1 13
-10 6 -9 18 -17 26 -19 8 -2 23 -12 34 -22 20 -19 20 -33 20 -963 0 -519 -3
-946 -6 -950 -4 -3 -136 -6 -294 -7 l-288 -1 -26 27 c-15 15 -25 29 -22 32 2
2 -9 14 -26 27 -17 12 -28 26 -26 30 3 4 -8 19 -25 32 -16 14 -30 30 -30 35 0
6 -13 21 -29 35 -17 14 -28 27 -26 29 3 3 -8 16 -23 31 -26 25 -28 25 -62 10
-19 -9 -42 -17 -50 -19 -8 -2 -16 -8 -18 -14 -2 -5 -8 -8 -13 -5 -5 3 -18 1
-30 -6 -12 -6 -31 -12 -43 -14 -11 -2 -32 -6 -46 -10 -14 -3 -40 -8 -59 -10
-18 -2 -37 -7 -41 -12 -5 -4 11 -30 36 -58 109 -122 124 -139 124 -144 0 -2
11 -16 24 -30 78 -83 93 -101 89 -104 -2 -2 12 -18 31 -35 19 -16 33 -32 30
-35 -8 -7 107 -108 117 -102 5 4 9 2 9 -3 0 -5 193 -9 473 -8 l474 1 37 29
c36 27 58 63 49 79 -2 4 0 7 5 7 10 0 14 2238 3 2255 -3 6 -6 15 -7 22 -3 21
-46 59 -131 116 -46 31 -83 54 -83 52 0 -2 -12 7 -26 20 -15 14 -30 23 -34 20
-4 -2 -15 4 -25 15 -10 11 -22 20 -27 20 -5 0 -18 9 -30 20 -12 10 -24 17 -28
15 -5 -3 -11 2 -14 11 -3 8 -10 12 -16 9 -5 -3 -10 -1 -10 5 0 6 -8 14 -17 17
-10 4 -27 15 -37 25 -10 9 -22 15 -26 13 -5 -3 -11 2 -14 11 -3 8 -10 13 -15
10 -5 -3 -11 1 -15 9 -3 8 -12 15 -21 15 -8 0 -15 4 -15 9 0 5 -15 14 -32 22
-18 7 -35 16 -38 20 -10 14 -230 159 -230 152 0 -5 -5 0 -11 10 -6 9 -14 15
-18 12 -5 -2 -16 4 -26 15 -10 11 -22 20 -27 20 -5 0 -18 9 -30 20 -12 11 -28
20 -35 20 -7 0 -13 5 -13 10 0 6 -7 10 -15 10 -8 0 -15 5 -15 10 0 6 -6 10
-14 10 -8 0 -16 4 -18 8 -4 11 -97 72 -109 72 -5 0 -9 4 -9 10 0 5 -11 12 -25
16 -14 3 -25 10 -25 14 0 5 -8 11 -19 15 -10 3 -31 17 -47 30 -16 14 -35 25
-41 25 -7 0 -13 4 -13 9 0 5 -9 13 -20 16 -11 3 -26 12 -32 18 -16 15 -72 51
-75 49 -2 -1 -12 7 -23 18 -12 12 -25 18 -30 15 -4 -3 -10 -1 -12 5 -1 5 -48
39 -103 75 -93 60 -104 65 -155 65 -46 0 -66 -6 -111 -33z"/>
</g>
</svg>
